<svg id="Layer_1" data-name="Layer 1" xmlns="http://www.w3.org/2000/svg" xmlns:xlink="http://www.w3.org/1999/xlink" viewBox="0 0 100 100"><defs><style>.cls-1{fill:#1a1a1a;}.cls-2{fill:url(#linear-gradient);}</style><linearGradient id="linear-gradient" x1="-2.53" y1="65.31" x2="186.68" y2="13.8" gradientUnits="userSpaceOnUse"><stop offset="0" stop-color="#a0a0a0"/><stop offset="0.02" stop-color="#a7a7a7"/><stop offset="0.17" stop-color="#cdcdcd"/><stop offset="0.3" stop-color="#e9e9e9"/><stop offset="0.42" stop-color="#f9f9f9"/><stop offset="0.5" stop-color="#fff"/><stop offset="0.59" stop-color="#f9f9f9"/><stop offset="0.71" stop-color="#e7e7e7"/><stop offset="0.84" stop-color="#cbcbcb"/><stop offset="0.99" stop-color="#a3a3a3"/><stop offset="1" stop-color="#a0a0a0"/></linearGradient></defs><rect class="cls-1" width="100" height="100"/><path class="cls-2" d="M53.59,76.73,53.27,78a50.18,50.18,0,0,1-6.39-1.74,46.72,46.72,0,0,1-6.24-2.89,62.92,62.92,0,0,1-6.92,8.27,29.46,29.46,0,0,1-7.54,5.5,18.75,18.75,0,0,1-8.54,2,13.64,13.64,0,0,1-6.28-1.49,11.83,11.83,0,0,1-4.64-4.1A10.24,10.24,0,0,1,5,77.87,7.25,7.25,0,0,1,7.46,72a7.68,7.68,0,0,1,4.92-2.08,5,5,0,0,1,3.67,1.4,4.4,4.4,0,0,1,1.43,3.23,4.37,4.37,0,0,1-4.38,4.29A4,4,0,0,1,10,77.55a4.42,4.42,0,0,1-1.2-3.1,5.85,5.85,0,0,1,.73-2.33A6.54,6.54,0,0,0,6.38,78a9.08,9.08,0,0,0,1.46,4.92,10.42,10.42,0,0,0,4,3.67,12,12,0,0,0,5.68,1.36,16.44,16.44,0,0,0,9.11-2.7,29.2,29.2,0,0,0,6.81-5.91,84.42,84.42,0,0,0,5.22-7.17,39.79,39.79,0,0,1-6.49-7.45A17.06,17.06,0,0,1,29.62,55a18.2,18.2,0,0,1,1.57-7.58,17.67,17.67,0,0,1,4.27-5.87,18.91,18.91,0,0,1,6.15-3.71,20.13,20.13,0,0,1,7.13-1.29,30.61,30.61,0,0,1,8.09,1.54,105.14,105.14,0,0,1,10.06-15,36.84,36.84,0,0,1,10.94-9.09,29,29,0,0,1,13.85-3.26l1.68,0c.74,0,1.28,0,1.64,0l-.26,1.47-1.46,0c-.65,0-1.13,0-1.44,0a39.35,39.35,0,0,0-4,.24L76.19,66.68H84.7l-.24,1.46H60.15l.34-1.46h8.35a53.57,53.57,0,0,0,.63-6.8A22.15,22.15,0,0,0,66.4,47.79a22.36,22.36,0,0,0-8.34-7.73L49.63,57.22q-1.76,3.66-3,6c-.83,1.56-1.76,3.2-2.77,4.91l-2.49,4.14,2.35,1.28q2.18,1,3.6,1.59a23.7,23.7,0,0,0,2.87.89C51.15,76.28,52.28,76.5,53.59,76.73ZM39.43,71q2.81-5.06,8.5-16.42,3.63-7.41,8.35-15.3a27.39,27.39,0,0,0-7.46-1.38A18.84,18.84,0,0,0,40.14,40a16.9,16.9,0,0,0-6.62,6A16.31,16.31,0,0,0,31,55a16,16,0,0,0,2.42,9.14A35.17,35.17,0,0,0,39.43,71ZM70.77,59.15l9.79-44.8a35.53,35.53,0,0,0-6.8,4.11,36.32,36.32,0,0,0-5.51,5.29,56.28,56.28,0,0,0-4.7,6.54q-2.25,3.6-4.84,8.47a27.85,27.85,0,0,1,8.55,7.7C69.31,49.39,70.48,53.61,70.77,59.15Z"/></svg>